<svg width="128" height="35" viewBox="0 0 128 35" fill="none" xmlns="http://www.w3.org/2000/svg">
<path d="M53.2128 19.7597C52.9571 21.5853 52.2517 23.0164 51.1006 24.0527C49.9494 25.0891 48.4939 25.6074 46.7343 25.6074C44.681 25.6074 43.0458 24.9038 41.8288 23.4968C40.6087 22.0898 40 20.1954 40 17.814C40 15.4288 40.6327 13.5312 41.8981 12.1207C43.1667 10.7067 44.8677 10 47.0005 10C48.6806 10 50.0636 10.429 51.1419 11.2868C52.224 12.1447 52.874 13.3289 53.0884 14.8388H51.1386C50.9485 13.8609 50.4922 13.1024 49.7661 12.5703C49.04 12.0384 48.1067 11.7707 46.9658 11.7707C45.4724 11.7707 44.2865 12.3162 43.4018 13.4075C42.5169 14.4989 42.0741 15.9676 42.0741 17.814C42.0741 19.7734 42.4856 21.2696 43.3048 22.2957C44.124 23.322 45.3133 23.8365 46.8725 23.8365C48.0237 23.8365 48.9812 23.4832 49.7453 22.7762C50.5058 22.0659 51.0139 21.0604 51.2628 19.7599H53.2125L53.2128 19.7597ZM58.2704 25.4837C57.2092 25.4837 56.3692 25.2024 55.7472 24.6395C55.1248 24.0767 54.8137 23.315 54.8137 22.3541C54.8137 21.3897 55.1073 20.6211 55.6917 20.0515C56.2759 19.4817 57.1297 19.1249 58.2498 18.9842L60.7353 18.6716C60.936 18.6546 61.1296 18.6201 61.3127 18.5722C61.5478 18.514 61.731 18.3904 61.8587 18.2085C61.987 18.0267 62.0524 17.7967 62.0524 17.5223V17.4295C62.0524 16.8496 61.831 16.3967 61.392 16.0705C60.953 15.7448 60.3375 15.58 59.553 15.58C58.8026 15.58 58.2184 15.7514 57.7967 16.0981C57.375 16.4412 57.119 16.956 57.0327 17.6391H55.3524C55.4388 16.462 55.8574 15.5765 56.6073 14.9862C57.3577 14.3925 58.4292 14.0975 59.8259 14.0975C61.1466 14.0975 62.1526 14.3823 62.8407 14.9483C63.532 15.5146 63.8777 16.3417 63.8777 17.4295V23.3494C63.8777 23.5277 63.933 23.6755 64.0471 23.785C64.1577 23.8983 64.3098 23.9532 64.4999 23.9532C64.5552 23.9532 64.6346 23.9462 64.7384 23.9327C64.8456 23.9189 64.9598 23.8984 65.0806 23.8709V25.1783C64.9043 25.2468 64.7176 25.3017 64.5206 25.3395C64.3234 25.3807 64.1577 25.401 64.0229 25.401C63.3313 25.401 62.8301 25.2126 62.519 24.8385C62.3149 24.5914 62.1699 24.2413 62.0833 23.7848C61.9487 23.953 61.7931 24.1144 61.6166 24.2688C60.7039 25.0788 59.5873 25.4835 58.2701 25.4835V25.4836L58.2704 25.4837ZM62.0525 20.9301V19.7599C61.7137 19.9213 61.3404 20.0307 60.9289 20.0927L59.2559 20.3329C58.3777 20.4531 57.7346 20.659 57.3302 20.9437C56.9259 21.2319 56.7218 21.6198 56.7218 22.1105C56.7218 22.7179 56.8877 23.1846 57.2194 23.5108C57.5479 23.8366 58.0182 24.0015 58.6266 24.0015C59.5877 24.0015 60.3966 23.7407 61.0603 23.2225C61.5131 22.8586 61.814 22.4501 61.9625 21.9905C61.987 21.9047 62.0076 21.7674 62.0214 21.5786C62.0423 21.3831 62.0526 21.1668 62.0526 20.9301H62.0525ZM69.212 15.9506V25.1956H67.3867V15.9506H65.8934V14.4475H67.3867V12.615C67.3867 11.8153 67.6217 11.215 68.0953 10.8101C68.569 10.4085 69.2778 10.2061 70.2248 10.2061L71.0163 10.237V11.8637L70.3042 11.8329C69.9551 11.8329 69.6855 11.9459 69.4952 12.1725C69.3051 12.3956 69.2119 12.7182 69.2119 13.1334V14.4476H71.0163V15.9507H69.2119L69.212 15.9506ZM77.1285 25.4838C75.5971 25.4838 74.3908 25.0001 73.5128 24.0358C72.6345 23.068 72.1956 21.733 72.1956 20.0276C72.1956 18.2157 72.6587 16.7743 73.5887 15.7036C74.5151 14.6331 75.763 14.0977 77.3292 14.0977C78.7466 14.0977 79.8908 14.6227 80.7621 15.6693C81.6331 16.7159 82.0689 18.0919 82.0689 19.7941L82.0482 20.4393H74.1384C74.211 21.5135 74.4599 22.3302 74.8781 22.8931C75.3897 23.576 76.1987 23.9192 77.305 23.9192C77.9998 23.9192 78.6082 23.7272 79.1269 23.3392C79.6455 22.9515 79.9635 22.4608 80.0775 21.8603H81.8822C81.6125 23.0372 81.0697 23.9366 80.2607 24.554C79.452 25.1752 78.4079 25.484 77.1286 25.484V25.4838H77.1285ZM80.1743 18.9774C80.1225 17.9789 79.87 17.2033 79.4241 16.6474C78.9331 16.033 78.2106 15.7242 77.2566 15.7242C76.2989 15.7242 75.5315 16.0776 74.9575 16.7878C74.5047 17.3437 74.2316 18.0749 74.1383 18.9773H80.1743V18.9774ZM76.4475 12.9857L78.2936 10.0823H80.5337L77.858 12.9857H76.4475ZM96.7299 25.6077C94.5655 25.6077 92.8164 24.8904 91.4785 23.4596C90.1407 22.0249 89.4734 20.1444 89.4734 17.8144C89.4734 15.4774 90.1407 13.5935 91.4785 12.1553C92.8164 10.7176 94.5655 10.0004 96.7299 10.0004C98.9044 10.0004 100.657 10.7176 101.991 12.1553C103.326 13.5934 103.993 15.4774 103.993 17.8144C103.993 20.1444 103.326 22.0249 101.991 23.4596C100.657 24.8906 98.9043 25.6077 96.7299 25.6077ZM96.7299 23.8367C98.282 23.8367 99.5369 23.2843 100.491 22.1759C101.442 21.0673 101.919 19.6123 101.919 17.8141C101.919 16.0092 101.442 14.5506 100.491 13.4386C99.5369 12.3267 98.282 11.7708 96.7299 11.7708C95.1808 11.7708 93.9295 12.3267 92.9755 13.4386C92.0248 14.5506 91.5476 16.0092 91.5476 17.8141C91.5476 19.6122 92.0247 21.0673 92.9755 22.1759C93.9297 23.2843 95.181 23.8367 96.7299 23.8367ZM106.147 25.1957V14.4271H107.882V16.0093L108.287 15.4739C109.075 14.5575 110.064 14.0978 111.25 14.0978C112.446 14.0978 113.365 14.4205 114.012 15.0654C114.658 15.7108 114.983 16.6269 114.983 17.8144V25.196H113.157V18.4253C113.157 17.478 112.974 16.7951 112.608 16.3765C112.238 15.9544 111.643 15.745 110.824 15.745C109.946 15.745 109.251 16.0743 108.74 16.7367C108.228 17.3989 107.972 18.2949 107.972 19.4237V25.1958H106.147V25.1957ZM122.098 25.4838C120.566 25.4838 119.36 25.0001 118.482 24.0358C117.604 23.068 117.165 21.733 117.165 20.0276C117.165 18.2157 117.628 16.7743 118.558 15.7036C119.484 14.6331 120.732 14.0977 122.298 14.0977C123.716 14.0977 124.86 14.6227 125.731 15.6693C126.602 16.7159 127.038 18.0919 127.038 19.7941L127.017 20.4393H119.107C119.18 21.5135 119.429 22.3302 119.847 22.8931C120.359 23.576 121.168 23.9192 122.274 23.9192C122.969 23.9192 123.577 23.7272 124.096 23.3392C124.614 22.9515 124.932 22.4608 125.047 21.8603H126.851C126.581 23.0372 126.039 23.9366 125.23 24.554C124.421 25.1752 123.377 25.484 122.098 25.484V25.4838H122.098ZM125.143 18.9774C125.091 17.9789 124.839 17.2033 124.393 16.6474C123.902 16.033 123.179 15.7242 122.225 15.7242C121.268 15.7242 120.501 16.0776 119.927 16.7878C119.474 17.3437 119.201 18.0749 119.107 18.9773H125.143L125.143 18.9774Z" fill="black"/>
<g clip-path="url(#clip0_4139_11047)">
<mask id="path-2-inside-1_4139_11047" fill="white">
<path fill-rule="evenodd" clip-rule="evenodd" d="M35 17.3738C35 26.968 27.165 34.7458 17.5 34.7458C7.83531 34.7458 0 26.9676 0 17.3738C0 7.77995 7.83516 0.00195312 17.5 0.00195312C27.1652 0.00195312 35 7.77956 35 17.3738ZM34.7747 17.3738C34.7747 7.903 27.0409 0.225626 17.5 0.225626C7.9599 0.225626 0.225558 7.903 0.225558 17.3738C0.225558 26.8443 7.9599 34.522 17.5 34.522C27.041 34.522 34.7747 26.8443 34.7747 17.3738Z"/>
</mask>
<path fill-rule="evenodd" clip-rule="evenodd" d="M35 17.3738C35 26.968 27.165 34.7458 17.5 34.7458C7.83531 34.7458 0 26.9676 0 17.3738C0 7.77995 7.83516 0.00195312 17.5 0.00195312C27.1652 0.00195312 35 7.77956 35 17.3738ZM34.7747 17.3738C34.7747 7.903 27.0409 0.225626 17.5 0.225626C7.9599 0.225626 0.225558 7.903 0.225558 17.3738C0.225558 26.8443 7.9599 34.522 17.5 34.522C27.041 34.522 34.7747 26.8443 34.7747 17.3738Z" fill="black"/>
<path d="M34 17.3738C34 26.4088 26.6197 33.7458 17.5 33.7458V35.7458C27.7104 35.7458 36 27.5272 36 17.3738H34ZM17.5 33.7458C8.38067 33.7458 1 26.4084 1 17.3738H-1C-1 27.5268 7.28995 35.7458 17.5 35.7458V33.7458ZM1 17.3738C1 8.33914 8.38051 1.00195 17.5 1.00195V-0.998047C7.2898 -0.998047 -1 7.22075 -1 17.3738H1ZM17.5 1.00195C26.6198 1.00195 34 8.33875 34 17.3738H36C36 7.22036 27.7105 -0.998047 17.5 -0.998047V1.00195ZM35.7747 17.3738C35.7747 7.34381 27.5862 -0.774374 17.5 -0.774374V1.22563C26.4955 1.22563 33.7747 8.46219 33.7747 17.3738H35.7747ZM17.5 -0.774374C7.41456 -0.774374 -0.774442 7.34379 -0.774442 17.3738H1.22556C1.22556 8.4622 8.50524 1.22563 17.5 1.22563V-0.774374ZM-0.774442 17.3738C-0.774442 27.4035 7.41455 35.522 17.5 35.522V33.522C8.50525 33.522 1.22556 26.2851 1.22556 17.3738H-0.774442ZM17.5 35.522C27.5863 35.522 35.7747 27.4035 35.7747 17.3738H33.7747C33.7747 26.2851 26.4956 33.522 17.5 33.522V35.522Z" fill="black" mask="url(#path-2-inside-1_4139_11047)"/>
<path d="M7.82962 18.3C8.2004 17.0705 9.16665 16.0949 10.3957 15.7051C9.62091 15.2847 9.09447 14.4682 9.09447 13.532C9.09447 13.5087 9.09746 13.4863 9.09785 13.4632H9.09447C9.09447 11.9941 8.15145 10.7428 6.83622 10.2649C6.43469 10.8443 6.0749 11.4547 5.77198 12.0975C5.31388 13.0645 4.97472 14.1002 4.77435 15.1809C4.67887 15.6761 4.61657 16.1832 4.58299 16.6977C4.56942 16.8977 4.56267 17.0983 4.55859 17.2999C4.89171 17.136 5.26516 17.0414 5.66089 17.0414C6.5905 17.0414 7.4011 17.5499 7.8297 18.3L7.82962 18.3Z" fill="black"/>
<path d="M11.5865 11.5439C10.4824 11.5439 9.5835 12.4359 9.5835 13.5324C9.5835 14.6286 10.4824 15.5207 11.5865 15.5207C12.6909 15.5207 13.5894 14.6286 13.5894 13.5324C13.5894 12.4359 12.6909 11.5439 11.5865 11.5439Z" fill="black"/>
<path d="M7.66332 19.5176C7.66332 18.4213 6.765 17.5293 5.66051 17.5293C5.25569 17.5293 4.87855 17.6502 4.56348 17.8566C4.59321 19.1035 4.80198 20.3066 5.16648 21.4422C5.32488 21.4823 5.48995 21.5059 5.66059 21.5059C6.76508 21.5059 7.66339 20.6138 7.66339 19.5176H7.66332Z" fill="black"/>
<path d="M22.2216 15.7894C21.4469 15.369 20.9204 14.5529 20.9204 13.6164C20.9204 13.5212 20.9272 13.4276 20.9374 13.3354C20.9326 11.5188 19.4881 10.0363 17.679 9.94507C17.6211 9.94912 17.5636 9.95379 17.5046 9.95379C17.4453 9.95379 17.3875 9.94904 17.3294 9.94507C15.5176 10.0363 14.0708 11.5237 14.0708 13.3448C14.0752 13.4069 14.08 13.4689 14.08 13.5325C14.08 14.4687 13.5535 15.2852 12.7788 15.7056C14.0044 16.0942 14.969 17.0653 15.3421 18.2899C15.7726 17.5457 16.5794 17.042 17.5044 17.042C18.4374 17.042 19.2512 17.5541 19.6784 18.3093C20.0657 17.1154 21.0177 16.1712 22.2214 15.7894H22.2216Z" fill="black"/>
<path d="M15.5015 19.5177C15.5015 20.6138 16.3995 21.5059 17.5043 21.5059C18.6083 21.5059 19.5072 20.6138 19.5072 19.5177C19.5072 19.5116 19.5062 19.506 19.506 19.5001H19.4893C19.4893 19.4444 19.4955 19.3903 19.498 19.3355C19.4048 18.3243 18.5465 17.5293 17.5043 17.5293C16.4482 17.5293 15.5824 18.3456 15.5085 19.3755C15.5088 19.3892 15.5106 19.4026 15.5106 19.4162H15.5062C15.5044 19.45 15.5015 19.4832 15.5015 19.5176V19.5177Z" fill="black"/>
<path d="M27.3364 19.5176C27.3364 20.6138 28.2349 21.5059 29.3394 21.5059C29.51 21.5059 29.6749 21.4823 29.8332 21.4422C30.1975 20.3071 30.4067 19.1042 30.4369 17.8562C30.1213 17.6502 29.7447 17.5293 29.3394 17.5293C28.2349 17.5293 27.3364 18.4213 27.3364 19.5176Z" fill="black"/>
<path d="M16.064 27.106V30.3153C16.5358 30.367 17.015 30.3952 17.5013 30.3952C17.9862 30.3952 18.4647 30.3674 18.9359 30.3156V27.106H16.064Z" fill="black"/>
<path d="M26.8465 19.5164C26.8465 19.5104 26.8475 19.5047 26.8475 19.4989H26.8465C26.8465 17.6193 25.3063 16.0905 23.4131 16.0905C21.5759 16.0905 20.0753 17.5314 19.9878 19.334C19.9923 19.3946 19.9971 19.4548 19.9971 19.5164C19.9971 20.8811 18.8791 21.9911 17.5044 21.9911C16.1297 21.9911 15.0111 20.8811 15.0111 19.5164C15.0111 19.4683 15.0156 19.4216 15.0184 19.3744C14.9964 17.5137 13.4664 16.0066 11.587 16.0066C9.69383 16.0066 8.15368 17.5354 8.15368 19.415H8.14827C8.14976 19.4488 8.15368 19.4821 8.15368 19.5164C8.15368 20.8811 7.03523 21.9911 5.66046 21.9911C5.55454 21.9911 5.4502 21.9824 5.34766 21.9696C5.49586 22.3702 5.6614 22.763 5.84804 23.1439C6.43559 24.3502 7.20885 25.4522 8.1307 26.412C9.74695 28.0899 11.8143 29.3365 14.142 29.9553C14.6098 30.0801 15.0875 30.1779 15.5737 30.2502V27.1044H14.9786C14.3796 27.1044 13.8929 26.6209 13.8929 26.0267C13.8929 25.4325 14.3796 24.9489 14.9786 24.9489C15.5773 24.9489 16.0642 25.4324 16.0642 26.0267V26.6176H18.9362V26.0267C18.9362 25.4325 19.4235 24.9489 20.0216 24.9489C20.6206 24.9489 21.1072 25.4324 21.1072 26.0267C21.1072 26.6209 20.6206 27.1044 20.0216 27.1044H19.4266V30.2502C19.9133 30.1779 20.3914 30.0804 20.8583 29.9553C23.1834 29.3391 25.2512 28.0946 26.8647 26.4167C27.7889 25.4572 28.5626 24.3527 29.1522 23.1464C29.3387 22.7645 29.5041 22.371 29.6526 21.9696C29.55 21.9824 29.4459 21.9911 29.3398 21.9911C27.965 21.9911 26.8466 20.8811 26.8466 19.5164H26.8466H26.8465Z" fill="black"/>
<path d="M15.5733 26.0275C15.5733 25.6961 15.3123 25.4363 14.9781 25.4363C14.6442 25.4363 14.3823 25.6961 14.3823 26.0275C14.3823 26.359 14.6442 26.6185 14.9781 26.6185H15.5733V26.0275Z" fill="black"/>
<path d="M20.6176 26.0275C20.6176 25.6961 20.3557 25.4363 20.0218 25.4363C19.6881 25.4363 19.4268 25.6961 19.4268 26.0275V26.6185H20.0218C20.3558 26.6185 20.6176 26.359 20.6176 26.0275Z" fill="black"/>
<path d="M17.6788 9.45891C18.7013 9.37059 19.5072 8.51718 19.5072 7.4795C19.5072 6.38325 18.6084 5.49121 17.5043 5.49121C16.3995 5.49121 15.5015 6.38325 15.5015 7.4795C15.5015 8.51718 16.3066 9.37059 17.3295 9.45891C17.3877 9.45649 17.445 9.45018 17.5043 9.45018C17.5633 9.45018 17.6205 9.45657 17.6788 9.45891Z" fill="black"/>
<path d="M9.41221 12.3267C9.83956 11.5708 10.6539 11.0583 11.587 11.0583C12.5013 11.0583 13.2997 11.5505 13.7333 12.2804C14.0916 11.0341 15.0579 10.0412 16.2944 9.64216C15.5304 9.21911 15.0112 8.409 15.0112 7.48004C15.0112 6.11542 16.1297 5.00539 17.5045 5.00539C18.8792 5.00539 19.9971 6.11535 19.9971 7.48004C19.9971 8.40908 19.4786 9.21911 18.7139 9.64216C19.9666 10.0465 20.9417 11.0606 21.288 12.3296C21.7267 11.6191 22.5138 11.1422 23.4132 11.1422C24.336 11.1422 25.1419 11.6438 25.5723 12.3855C25.9075 11.235 26.7621 10.3027 27.868 9.85656C27.1146 8.85674 26.2218 7.96633 25.213 7.22164C23.2216 5.75203 20.7888 4.83725 18.1509 4.70922C18.1509 4.70922 18.1509 4.70922 18.1483 4.70922C17.9335 4.69738 17.7187 4.69263 17.5016 4.69263C17.2821 4.69263 17.0671 4.69738 16.8523 4.70922H16.8497C14.2092 4.83974 11.7743 5.75445 9.78064 7.22631C8.77453 7.96976 7.88398 8.85853 7.13184 9.85641C8.21969 10.295 9.06583 11.2025 9.41253 12.3267H9.41221Z" fill="black"/>
<path d="M25.9062 13.4647H25.8984C25.9016 13.5155 25.9062 13.5656 25.9062 13.6173C25.9062 14.5539 25.3796 15.37 24.605 15.7904C25.8146 16.1743 26.7715 17.1256 27.1544 18.3284C27.5791 17.563 28.3993 17.043 29.3398 17.043C29.7355 17.043 30.1094 17.1375 30.4421 17.3015C30.438 17.1021 30.4312 16.9039 30.4176 16.7062C30.3864 16.1847 30.3199 15.6728 30.2243 15.1704C30.0233 14.0945 29.6871 13.0661 29.2309 12.1038C28.9272 11.4593 28.567 10.8473 28.164 10.2666C26.8493 10.7448 25.9062 11.9957 25.9062 13.4648H25.9062V13.4647Z" fill="black"/>
<path d="M25.4167 13.6169C25.4167 12.5206 24.5179 11.6287 23.4136 11.6287C22.3091 11.6287 21.4106 12.5207 21.4106 13.6169C21.4106 14.713 22.3091 15.6051 23.4136 15.6051C24.5178 15.6051 25.4167 14.7131 25.4167 13.6169Z" fill="black"/>
<path d="M15.5732 34.6674H16.0637V30.3134C15.8991 30.2953 15.7358 30.2755 15.5732 30.2515V34.6673V34.6674Z" fill="black"/>
<path d="M18.936 34.6673H19.4264V30.2515C19.2638 30.2755 19.1003 30.2952 18.936 30.3134V34.6674V34.6673Z" fill="black"/>
</g>
<defs>
<clipPath id="clip0_4139_11047">
<rect width="35" height="34.7438" fill="white"/>
</clipPath>
</defs>
</svg>
