<svg xmlns="http://www.w3.org/2000/svg" id="Layer_1" data-name="Layer 1" viewBox="37.39 144.9 423.61 192.11"><defs><style>.cls-1{fill:#f00c18;}.cls-2{fill:#fee719;}.cls-3{fill:#19a5ff;}.cls-4{fill:#13d1ff;}.cls-5{font-size:43px;font-family:RobotoSlab-Regular, Roboto Slab;letter-spacing:-0.01em;}.cls-6{letter-spacing:-0.13em;}.cls-7{letter-spacing:-0.05em;}</style></defs><title>Artboard 3</title><path class="cls-1" d="M177.08,294.78a70.65,70.65,0,0,1-14,7.74,73.73,73.73,0,0,1-40,4.33,71.59,71.59,0,0,1-32.56-14.46A68.34,68.34,0,0,1,73,270.54c-1-2-16-24.06-2.49-58S116.8,169.12,139,167.44c25.05-1.89,48,8.45,67.61,18.72,6.51,3.4,12.86,7.09,19.28,10.65l.68.11c.54.09.68.15.78.06s0-.55,0-.82a2.64,2.64,0,0,0-.38-.79C219.33,188.89,212,182,204.12,176c-24.91-19-53.24-28.84-84.48-26-27.33,2.47-56.46,20.1-71.75,49A93.65,93.65,0,0,0,37.41,244a95.3,95.3,0,0,0,84.36,92.48,107.58,107.58,0,0,0,26.16-.58,104.19,104.19,0,0,0,30-9.27Q177.51,310.72,177.08,294.78Z"/><path class="cls-2" d="M321.8,186.15A76.43,76.43,0,0,1,377,175.34a71.4,71.4,0,0,1,32.15,15.25,68.19,68.19,0,0,1,16.92,22.25c.95,2,15.36,24.43,1,58S379.8,313,357.61,314.14c-25.06,1.27-47.72-9.63-67-20.37-6.41-3.57-12.67-7.41-19-11.12l-.67-.13c-.54-.1-.67-.16-.78-.08s-.07.55,0,.82a2.63,2.63,0,0,0,.36.8c7.41,6.66,14.53,13.69,22.29,19.92,24.4,19.62,52.43,30.13,83.7,28.09,27.35-1.78,56.89-18.65,72.87-47.13A93.57,93.57,0,0,0,461,240.21,95.19,95.19,0,0,0,379,145.76a104.79,104.79,0,0,0-26.13-.08,103.18,103.18,0,0,0-32.35,9.68Z"/><path class="cls-3" d="M314.07,150.64c-8.48,3.47-17.37,6.18-25.35,10.56-19.29,10.6-33.11,27-44.83,45.24-10.19,15.83-19.52,32.24-30.11,47.79-9.28,13.62-19.67,26.17-32,36.68l.84,33.45a178.83,178.83,0,0,0,23.53-21c16-17.07,20.3-28.48,51.58-87.58,0,0,22.65-42.78,46.28-57,2.67-1.61,5.42-3.19,5.42-3.19,2.16-1.21,4-2.26,5.49-3.06.47-.21.81-.57.8-.92S315,150.51,314.07,150.64Z"/><path class="cls-4" d="M184.64,330c8.48-3.46,17.38-6.15,25.36-10.51,19.32-10.57,33.17-26.95,44.92-45.16,10.22-15.81,19.58-32.2,30.2-47.73,9.31-13.61,19.72-26.13,32-36.62l-.77-33.45a164,164,0,0,0-23.58,21C270.9,200.83,257.26,229.2,244.33,258A175.21,175.21,0,0,1,235,277.2,150.07,150.07,0,0,1,219.84,299a111,111,0,0,1-30.58,26.14h0c-3.58,2-5.26,2.09-5.5,3.05C183.67,328.55,183.75,329.12,184.64,330Z"/><text class="cls-5" transform="translate(77.81 256)">REMO</text><text class="cls-5" transform="translate(289.65 256)">S<tspan class="cls-6" x="24.98" y="0">T</tspan><tspan x="49.11" y="0">A</tspan><tspan class="cls-7" x="80.96" y="0">R</tspan><tspan x="108.01" y="0">T</tspan></text></svg>